<svg xmlns="http://www.w3.org/2000/svg" contentScriptType="text/ecmascript" width="30" viewBox="0 0 30 30" height="30" version="1.0"><defs><clipPath id="a"><path d="M 8.769531 10.824219 L 21.105469 10.824219 L 21.105469 18.082031 L 8.769531 18.082031 Z M 8.769531 10.824219"/></clipPath></defs><path fill="#D9D9D9" d="M 15 3.628906 C 8.988281 3.628906 4.113281 8.503906 4.113281 14.515625 C 4.113281 20.527344 8.988281 25.402344 15 25.402344 C 21.011719 25.402344 25.886719 20.527344 25.886719 14.515625 C 25.886719 8.503906 21.011719 3.628906 15 3.628906 Z M 15 3.628906"/><path fill="#FFF" d="M 15 3.628906 C 8.988281 3.628906 4.113281 8.503906 4.113281 14.515625 C 4.113281 20.527344 8.988281 25.402344 15 25.402344 C 21.011719 25.402344 25.886719 20.527344 25.886719 14.515625 C 25.886719 8.503906 21.011719 3.628906 15 3.628906 Z M 15 3.628906"/><path fill="#FFA500" d="M 15 5.082031 C 9.789062 5.082031 5.566406 9.304688 5.566406 14.515625 C 5.566406 19.726562 9.789062 23.953125 15 23.953125 C 20.210938 23.953125 24.433594 19.726562 24.433594 14.515625 C 24.433594 9.304688 20.210938 5.082031 15 5.082031 Z M 15 5.082031"/><g clip-path="url(#a)"><path d="M 18.605469 13.132812 C 18.375 13.132812 18.15625 13.167969 17.945312 13.222656 L 17.496094 12.289062 L 17.300781 11.785156 L 18.222656 11.785156 C 18.335938 11.785156 18.433594 11.878906 18.433594 11.992188 C 18.433594 12.109375 18.335938 12.203125 18.222656 12.203125 L 18.1875 12.203125 C 18 12.203125 17.847656 12.355469 17.847656 12.542969 C 17.847656 12.730469 18 12.882812 18.1875 12.882812 L 18.222656 12.882812 C 18.714844 12.882812 19.117188 12.484375 19.117188 11.992188 C 19.117188 11.503906 18.714844 11.105469 18.222656 11.105469 L 16.804688 11.105469 C 16.691406 11.105469 16.585938 11.160156 16.523438 11.25 C 16.460938 11.34375 16.445312 11.460938 16.484375 11.5625 L 16.683594 12.078125 L 13.65625 12.078125 L 13.476562 11.503906 L 13.992188 11.503906 C 14.179688 11.503906 14.332031 11.351562 14.332031 11.164062 C 14.332031 10.976562 14.179688 10.824219 13.992188 10.824219 L 12.394531 10.824219 C 12.207031 10.824219 12.054688 10.976562 12.054688 11.164062 C 12.054688 11.351562 12.207031 11.503906 12.394531 11.503906 L 12.757812 11.503906 L 13.019531 12.324219 L 12.332031 13.371094 C 12.007812 13.21875 11.648438 13.132812 11.269531 13.132812 C 9.894531 13.132812 8.777344 14.242188 8.777344 15.609375 C 8.777344 16.972656 9.894531 18.082031 11.269531 18.082031 C 12.519531 18.082031 13.558594 17.160156 13.734375 15.96875 C 13.863281 16.207031 14.117188 16.371094 14.410156 16.371094 C 14.835938 16.371094 15.179688 16.027344 15.179688 15.609375 C 15.179688 15.503906 15.15625 15.402344 15.117188 15.3125 L 17.09375 13.03125 L 17.316406 13.492188 C 16.597656 13.925781 16.113281 14.710938 16.113281 15.609375 C 16.113281 16.972656 17.230469 18.082031 18.605469 18.082031 C 19.976562 18.082031 21.097656 16.972656 21.097656 15.609375 C 21.097656 14.242188 19.976562 13.132812 18.605469 13.132812 Z M 16.429688 12.757812 L 14.597656 14.867188 C 14.578125 14.863281 14.554688 14.859375 14.53125 14.855469 L 13.871094 12.757812 Z M 13.042969 15.269531 L 11.902344 15.269531 L 12.527344 14.320312 C 12.789062 14.570312 12.972656 14.898438 13.042969 15.269531 Z M 13.28125 13.167969 L 13.878906 15.058594 C 13.820312 15.113281 13.769531 15.175781 13.734375 15.25 C 13.644531 14.652344 13.34375 14.121094 12.902344 13.742188 Z M 11.269531 17.402344 C 10.273438 17.402344 9.460938 16.597656 9.460938 15.609375 C 9.460938 14.617188 10.273438 13.8125 11.269531 13.8125 C 11.511719 13.8125 11.742188 13.859375 11.953125 13.945312 L 10.984375 15.421875 C 10.914062 15.527344 10.910156 15.660156 10.96875 15.769531 C 11.027344 15.878906 11.144531 15.945312 11.269531 15.945312 L 13.042969 15.945312 C 12.882812 16.773438 12.148438 17.402344 11.269531 17.402344 Z M 18.605469 17.402344 C 17.605469 17.402344 16.796875 16.597656 16.796875 15.609375 C 16.796875 14.980469 17.121094 14.429688 17.613281 14.109375 L 18.410156 15.753906 C 18.46875 15.875 18.589844 15.945312 18.71875 15.945312 C 18.765625 15.945312 18.816406 15.9375 18.867188 15.914062 C 19.035156 15.832031 19.109375 15.628906 19.027344 15.460938 L 18.246094 13.847656 C 18.363281 13.824219 18.480469 13.8125 18.605469 13.8125 C 19.601562 13.8125 20.410156 14.617188 20.410156 15.609375 C 20.410156 16.597656 19.601562 17.402344 18.605469 17.402344 Z M 18.605469 17.402344"/></g></svg>